# xmcd CD database file
#
# Track frame offsets:
#	150
#	10605
#	25450
#	40130
#	51995
#	68955
#	81695
#	93345
#	103672
#	116232
#	127445
#	141167
#	151032
#	165607
#	177365
#
# Disc length: 2480 seconds
#
# Revision: 0
# Processed by: cddbd v1.4PL0 Copyright (c) Steve Scherf et al.
# Submitted via: CDex 1.40Release
#
DISCID=d409ae0f
DTITLE=Various Artist - Kansas City - Rythm and Blues Classics
DYEAR=1995
DGENRE=Blues
TTITLE0=Clarence "Frogman" Henry - Little Green Frog
TTITLE1=Lowell Fulson - Kansas City
TTITLE2=T-Bone Walker - I Used To Be A Good Boy
TTITLE3=Howlin Wolf - Oh Red
TTITLE4=Joe Hill Louis - She Treats Me Mean And Evil
TTITLE5=Prisonaires - Just Walkin' In The Rain
TTITLE6=Varetta Dillard - The Square Dance Rock
TTITLE7=Jimmy McCracklin - The Wobble
TTITLE8=Varetta Dillard - The Lovin' Bird
TTITLE9=Prisonaires - Baby Please
TTITLE10=Joe Hill Louis - Got A New Woman
TTITLE11=Howlin' Wolf - Look-A-Here Baby
TTITLE12=T-Bone Walker - Louisiana Bayou Drive
TTITLE13=Lowell Filson - Blood, Sweat And Tears
TTITLE14=Clerence "Frogman" Henry - Cajun Honey
EXTD=YEAR: 1995 ID3G: 0
EXTT0=
EXTT1=
EXTT2=
EXTT3=
EXTT4=
EXTT5=
EXTT6=
EXTT7=
EXTT8=
EXTT9=
EXTT10=
EXTT11=
EXTT12=
EXTT13=
EXTT14=
PLAYORDER=
